<?xml version="1.0" standalone="no"?><!DOCTYPE svg PUBLIC "-//W3C//DTD SVG 1.1//EN" "http://www.w3.org/Graphics/SVG/1.1/DTD/svg11.dtd"><svg t="1510282139214" class="icon" style="" viewBox="0 0 1024 1024" version="1.1" xmlns="http://www.w3.org/2000/svg" p-id="3909" xmlns:xlink="http://www.w3.org/1999/xlink" width="200" height="200"><defs><style type="text/css"></style></defs><path d="M529.075399 43.512003c-248.28683 0-449.583438 201.302749-449.583438 449.624371 0 248.295016 201.296609 449.594695 449.583438 449.594695 248.281713 0 449.63665-201.301725 449.63665-449.594695C978.711026 244.814752 777.357112 43.512003 529.075399 43.512003zM620.625488 254.873852c25.796526 18.876929 47.346331 36.182061 64.651462 51.910277l-25.010627 25.955138c-22.024619-21.391193-42.4713-39.953967-61.34823-55.685253L620.625488 254.873852zM362.017592 705.548134 336.535221 672.987554c11.325953-10.382465 16.98893-23.279193 16.98893-38.696324l0-94.381577-66.539462 0 0-33.977859 66.539462 0 0-65.595974-26.426883 0 0-24.068162c-7.236821 13.05841-14.629185 25.327852-22.180162 36.809347-8.181333-12.582573-15.889899-23.278169-23.12365-32.089859 31.459502-49.39192 55.685253-105.235786 72.674183-167.528528l36.809347 9.910721c-6.765077 20.609387-13.685697 40.11258-20.764929 58.516742l93.438089 0 0 33.977859L356.590999 355.86394c-7.867178 17.932418-15.96767 34.766828-24.303522 50.494021l121.281227 0 0 33.977859-63.707974 0 0 65.595974 69.842695 0 0 33.977859-69.842695 0 0 100.988042c20.133549-11.95324 43.2572-27.054169 69.37095-45.302789 1.570775 10.06831 4.088108 22.651906 7.550976 37.752836-31.463596 19.820418-57.260122 36.492122-77.393671 50.0233C377.745808 691.547259 368.624057 698.94167 362.017592 705.548134zM735.770971 674.874531c-7.550976 25.797549-21.552875 38.851866-41.999556 39.169091-18.249643 0-36.496216-7.079232-54.741765-21.236674-17.460674-13.05841-32.721239-29.416983-45.774533-49.078789-35.551704 26.741038-74.090439 49.233308-115.618251 67.482951-5.349845-8.810666-13.059434-19.664875-23.12365-32.561603 44.200688-18.404162 84.313268-41.056068 120.336716-67.954695-14.629185-31.459502-25.327852-69.212338-32.088836-113.258507l-69.842695 8.494465-5.191232-33.033347 70.787206-8.494465c-2.359744-20.292162-4.246721-42.549072-5.662977-66.774823l-62.291718 6.842849-5.191232-33.034371 65.831334-7.078209c-1.416256-33.818223-2.12336-70.941726-2.12336-111.370507l36.809347 0c0.154519 39.013549 0.862647 74.797543 2.12336 107.36017l160.212912-17.697057 3.774977 32.561603-162.337295 18.168802c1.570775 24.225751 3.458775 46.405913 5.662977 66.539462l160.449295-19.584034 3.774977 32.561603-160.212912 19.820418c5.504364 36.808324 13.839193 68.348668 25.010627 94.617961 29.258371-25.324782 55.604412-53.716412 79.045287-85.180008l29.258371 21.708418c-27.528983 36.33658-57.731866 68.585051-90.606601 96.741321 13.367449 20.450774 29.41289 36.019355 48.134277 46.719044 19.820418 13.21293 31.931247 8.648984 36.337603-13.685697 5.345752-24.852014 9.279341-49.078789 11.797697-72.674183 13.21293 5.349845 24.694425 9.282411 34.44858 11.796674C746.779699 630.202099 741.117746 657.5694 735.770971 674.874531z" p-id="3910" fill="#1296db"></path></svg>