<?xml version="1.0" standalone="no"?><!DOCTYPE svg PUBLIC "-//W3C//DTD SVG 1.1//EN" "http://www.w3.org/Graphics/SVG/1.1/DTD/svg11.dtd"><svg t="1509091112544" class="icon" style="" viewBox="0 0 1170 1024" version="1.1" xmlns="http://www.w3.org/2000/svg" p-id="4214" xmlns:xlink="http://www.w3.org/1999/xlink" width="228.515625" height="200"><defs><style type="text/css"></style></defs><path d="M1166.701714 502.637714c-31.817143 255.853714-257.682286 494.884571-565.613714 494.884572-118.710857 0-256.365714-47.323429-277.723429-119.515429-18.285714-61.805714-25.234286-149.869714-113.152-129.755428-110.226286 25.161143-207.067429-11.849143-209.92-110.592-10.24-352.548571 272.676571-561.005714 584.777143-596.699429C889.417143 6.144 1206.857143 179.2 1166.628571 502.637714z m-585.874285-404.772571C309.174857 128.146286 57.270857 338.651429 57.270857 616.009143c0 99.986286 55.296 92.452571 152.283429 80.237714 64.658286-8.045714 145.188571 21.284571 158.354285 128.438857 8.045714 65.389714 96.182857 115.931429 229.156572 115.931429 244.516571 0 471.478857-185.563429 507.099428-420.937143 47.396571-312.173714-253.513143-451.876571-523.190857-421.814857z m259.145142 299.885714a59.977143 59.977143 0 1 1 0-120.027428 59.977143 59.977143 0 0 1 0 119.954285z m-209.92-59.977143a59.977143 59.977143 0 1 1 0-120.027428 59.977143 59.977143 0 0 1 0 119.954285z m-209.92 59.977143a59.977143 59.977143 0 1 1 0-120.027428 59.977143 59.977143 0 0 1 0 119.954285z m-149.942857 149.942857a59.977143 59.977143 0 1 1 0-120.027428 59.977143 59.977143 0 0 1 0 119.954285z" p-id="4215" fill="#1296db"></path></svg>